<svg height="512pt" viewBox="0 0 512 512" width="512pt" xmlns="http://www.w3.org/2000/svg" xmlns:xlink="http://www.w3.org/1999/xlink"><linearGradient id="a" gradientUnits="userSpaceOnUse" x1="0" x2="512" y1="256" y2="256"><stop offset="0" stop-color="#00f2fe"/><stop offset=".0208" stop-color="#03effe"/><stop offset=".2931" stop-color="#24d2fe"/><stop offset=".5538" stop-color="#3cbdfe"/><stop offset=".7956" stop-color="#4ab0fe"/><stop offset="1" stop-color="#4facfe"/></linearGradient><path d="m256 512c-68.378906 0-132.667969-26.628906-181.019531-74.980469-48.351563-48.351562-74.980469-112.640625-74.980469-181.019531s26.628906-132.667969 74.980469-181.019531c48.351562-48.351563 112.640625-74.980469 181.019531-74.980469s132.667969 26.628906 181.019531 74.980469c48.351563 48.351562 74.980469 112.640625 74.980469 181.019531 0 50.53125-15 99.675781-43.375 142.117188-6.136719 9.179687-18.558594 11.648437-27.742188 5.511718-9.183593-6.140625-11.648437-18.5625-5.511718-27.742187 23.964844-35.84375 36.628906-77.296875 36.628906-119.886719 0-119.101562-96.898438-216-216-216s-216 96.898438-216 216 96.898438 216 216 216c39.503906 0 78.144531-10.757812 111.738281-31.105469 9.445313-5.722656 21.746094-2.703125 27.46875 6.746094 5.722657 9.445313 2.703125 21.742187-6.746093 27.464844-39.84375 24.136719-85.648438 36.894531-132.460938 36.894531zm-120-188v-140c0-11.046875-8.953125-20-20-20s-20 8.953125-20 20v140c0 11.046875 8.953125 20 20 20s20-8.953125 20-20zm298-46.667969v-46.667969c0-36.757812-30.054688-66.664062-67-66.664062s-67 29.90625-67 66.664062v46.667969c0 36.761719 30.054688 66.667969 67 66.667969s67-29.90625 67-66.667969zm-40-46.664062v46.667969c0 14.703124-12.113281 26.664062-27 26.664062s-27-11.960938-27-26.667969v-46.667969c0-14.703124 12.113281-26.664062 27-26.664062s27 11.960938 27 26.667969zm-117 67.203125c0-11.046875-8.953125-20-20-20s-20 8.953125-20 20c0 3.835937-3.808594 6.128906-7.488281 6.128906h-15.691407c-7.308593 0-12.820312-5.179688-12.820312-12.042969v-75.914062c0-6.863281 5.511719-12.042969 12.820312-12.042969h15.691407c3.679687 0 7.488281 2.292969 7.488281 6.128906 0 11.046875 8.953125 20 20 20s20-8.953125 20-20c0-25.433594-21.304688-46.128906-47.488281-46.128906h-15.691407c-14.054687 0-27.25 5.289062-37.152343 14.898438-10.105469 9.796874-15.667969 22.992187-15.667969 37.144531v75.914062c0 14.152344 5.5625 27.347657 15.667969 37.144531 9.902343 9.609376 23.097656 14.898438 37.152343 14.898438h15.691407c26.183593 0 47.488281-20.695312 47.488281-46.128906zm0 0" fill="url(#a)"/></svg>